<?xml version="1.0" encoding="utf-8"?>
<!-- Generated by Mocodo 4.3.3 -->
<svg width="785" height="348" viewBox="0 0 785 348" xmlns="http://www.w3.org/2000/svg">
<rect x="0" y="0" width="785" height="348" fill="#FFFFFF" stroke="none" stroke-width="0"/>

<!-- Association TRAITER -->
<g>
	<line x1="247" y1="174" x2="247" y2="62" stroke="#000000" stroke-width="1"/>
	<line x1="436" y1="62" x2="247" y2="62" stroke="#000000" stroke-width="1"/>
	<g>
		<path d="M270 36 a14 14 90 0 1 14 14 V62 h-74 V50 a14 14 90 0 1 14 -14" fill="#FFFFFF" stroke="#FFFFFF" stroke-width="0"/>
		<path d="M284 62 v12 a14 14 90 0 1 -14 14 H224 a14 14 90 0 1 -14 -14 V62 H74" fill="#FFFFFF" stroke="#FFFFFF" stroke-width="0"/>
		<rect x="210" y="36" width="74" height="52" fill="none" rx="14" stroke="#000000" stroke-width="1.5"/>
		<line x1="210" y1="62" x2="284" y2="62" stroke="#000000" stroke-width="1"/>
		<text x="217" y="54.6" fill="#000000" font-family="Courier New" font-size="14">Traiter</text>
	</g>
	<text x="252" y="131" fill="#000000" font-family="Courier New" font-size="12">0,1</text>
	<text x="289" y="78" fill="#000000" font-family="Courier New" font-size="12">1,1</text>
</g>

<!-- Association DEPLOYER -->
<g>
	<line x1="247" y1="174" x2="95" y2="174" stroke="#000000" stroke-width="1"/>
	<line x1="95" y1="62" x2="95" y2="174" stroke="#000000" stroke-width="1"/>
	<g>
		<path d="M122 148 a14 14 90 0 1 14 14 V174 h-82 V162 a14 14 90 0 1 14 -14" fill="#FFFFFF" stroke="#FFFFFF" stroke-width="0"/>
		<path d="M136 174 v12 a14 14 90 0 1 -14 14 H68 a14 14 90 0 1 -14 -14 V174 H82" fill="#FFFFFF" stroke="#FFFFFF" stroke-width="0"/>
		<rect x="54" y="148" width="82" height="52" fill="none" rx="14" stroke="#000000" stroke-width="1.5"/>
		<line x1="54" y1="174" x2="136" y2="174" stroke="#000000" stroke-width="1"/>
		<text x="61" y="166.6" fill="#000000" font-family="Courier New" font-size="14">Déployer</text>
	</g>
	<text x="150" y="190" fill="#000000" font-family="Courier New" font-size="12">0,1</text>
	<text x="100" y="131" fill="#000000" font-family="Courier New" font-size="12">1,1</text>
</g>

<!-- Association TELEVERSER -->
<g>
	<line x1="247" y1="174" x2="436" y2="174" stroke="#000000" stroke-width="1"/>
	<line x1="436" y1="286" x2="436" y2="174" stroke="#000000" stroke-width="1"/>
	<g>
		<path d="M472 148 a14 14 90 0 1 14 14 V174 h-100 V162 a14 14 90 0 1 14 -14" fill="#FFFFFF" stroke="#FFFFFF" stroke-width="0"/>
		<path d="M486 174 v12 a14 14 90 0 1 -14 14 H400 a14 14 90 0 1 -14 -14 V174 H100" fill="#FFFFFF" stroke="#FFFFFF" stroke-width="0"/>
		<rect x="386" y="148" width="100" height="52" fill="none" rx="14" stroke="#000000" stroke-width="1.5"/>
		<line x1="386" y1="174" x2="486" y2="174" stroke="#000000" stroke-width="1"/>
		<text x="394" y="166.6" fill="#000000" font-family="Courier New" font-size="14">Téléverser</text>
	</g>
	<text x="321" y="190" fill="#000000" font-family="Courier New" font-size="12">0,N</text>
	<text x="441" y="225" fill="#000000" font-family="Courier New" font-size="12">1,1</text>
</g>

<!-- Association DISCUTER -->
<g>
	<line x1="682" y1="286" x2="682" y2="174" stroke="#000000" stroke-width="1"/>
	<line x1="682" y1="62" x2="682" y2="174" stroke="#000000" stroke-width="1"/>
	<g>
		<path d="M709 148 a14 14 90 0 1 14 14 V174 h-82 V162 a14 14 90 0 1 14 -14" fill="#FFFFFF" stroke="#FFFFFF" stroke-width="0"/>
		<path d="M723 174 v12 a14 14 90 0 1 -14 14 H655 a14 14 90 0 1 -14 -14 V174 H82" fill="#FFFFFF" stroke="#FFFFFF" stroke-width="0"/>
		<rect x="641" y="148" width="82" height="52" fill="none" rx="14" stroke="#000000" stroke-width="1.5"/>
		<line x1="641" y1="174" x2="723" y2="174" stroke="#000000" stroke-width="1"/>
		<text x="648" y="166.6" fill="#000000" font-family="Courier New" font-size="14">Discuter</text>
	</g>
	<text x="687" y="225" fill="#000000" font-family="Courier New" font-size="12">0,N</text>
	<text x="687" y="131" fill="#000000" font-family="Courier New" font-size="12">1,1</text>
</g>

<!-- Association ANCRER -->
<g>
	<line x1="247" y1="174" x2="247" y2="286" stroke="#000000" stroke-width="1"/>
	<line x1="95" y1="286" x2="247" y2="286" stroke="#000000" stroke-width="1"/>
	<g>
		<path d="M266 260 a14 14 90 0 1 14 14 V286 h-66 V274 a14 14 90 0 1 14 -14" fill="#FFFFFF" stroke="#FFFFFF" stroke-width="0"/>
		<path d="M280 286 v12 a14 14 90 0 1 -14 14 H228 a14 14 90 0 1 -14 -14 V286 H66" fill="#FFFFFF" stroke="#FFFFFF" stroke-width="0"/>
		<rect x="214" y="260" width="66" height="52" fill="none" rx="14" stroke="#000000" stroke-width="1.5"/>
		<line x1="214" y1="286" x2="280" y2="286" stroke="#000000" stroke-width="1"/>
		<text x="221" y="278.6" fill="#000000" font-family="Courier New" font-size="14">Ancrer</text>
	</g>
	<text x="252" y="225" fill="#000000" font-family="Courier New" font-size="12">0,1</text>
	<text x="186" y="302" fill="#000000" font-family="Courier New" font-size="12">1,1</text>
</g>

<!-- Entity MATERIEL_MICRO -->
<g>
	<g>
		<rect x="26" y="9" width="138" height="26" fill="#FFFFFF" stroke="none" stroke-width="0" opacity="1"/>
		<rect x="26" y="35" width="138" height="80" fill="#FFFFFF" stroke="none" stroke-width="0" opacity="1"/>
		<rect x="26" y="9" width="138" height="106" fill="none" stroke="#000000" stroke-width="1.5" opacity="1"/>
		<line x1="26" y1="35" x2="164" y2="35" stroke="#000000" stroke-width="1"/>
	</g>
	<text x="36" y="27.6" fill="#000000" font-family="Courier New" font-size="14">Matériel micro</text>
	<text x="31" y="53.6" fill="#000000" font-family="Courier New" font-size="14">réf déploiement</text>
	<line x1="31" y1="56" x2="158" y2="56" stroke="#000000" stroke-width="1"/>
	<text x="31" y="71.6" fill="#000000" font-family="Courier New" font-size="14">position</text>
	<text x="31" y="89.6" fill="#000000" font-family="Courier New" font-size="14">hauteur</text>
	<text x="31" y="107.6" fill="#000000" font-family="Courier New" font-size="14">type de micro</text>
</g>

<!-- Entity TRAITEMENT_DE_PARTICIPATION -->
<g>
	<g>
		<rect x="317" y="18" width="238" height="26" fill="#FFFFFF" stroke="none" stroke-width="0" opacity="1"/>
		<rect x="317" y="44" width="238" height="62" fill="#FFFFFF" stroke="none" stroke-width="0" opacity="1"/>
		<rect x="317" y="18" width="238" height="88" fill="none" stroke="#000000" stroke-width="1.5" opacity="1"/>
		<line x1="317" y1="44" x2="555" y2="44" stroke="#000000" stroke-width="1"/>
	</g>
	<text x="322" y="36.6" fill="#000000" font-family="Courier New" font-size="14">Traitement de participation</text>
	<text x="322" y="62.6" fill="#000000" font-family="Courier New" font-size="14">réf traitement</text>
	<line x1="322" y1="65" x2="441" y2="65" stroke="#000000" stroke-width="1"/>
	<text x="322" y="80.6" fill="#000000" font-family="Courier New" font-size="14">état</text>
	<text x="322" y="98.6" fill="#000000" font-family="Courier New" font-size="14">relevé le</text>
</g>

<!-- Entity MESSAGE_DE_VALIDATION -->
<g>
	<g>
		<rect x="588" y="9" width="188" height="26" fill="#FFFFFF" stroke="none" stroke-width="0" opacity="1"/>
		<rect x="588" y="35" width="188" height="80" fill="#FFFFFF" stroke="none" stroke-width="0" opacity="1"/>
		<rect x="588" y="9" width="188" height="106" fill="none" stroke="#000000" stroke-width="1.5" opacity="1"/>
		<line x1="588" y1="35" x2="776" y2="35" stroke="#000000" stroke-width="1"/>
	</g>
	<text x="593" y="27.6" fill="#000000" font-family="Courier New" font-size="14">Message de validation</text>
	<text x="593" y="53.6" fill="#000000" font-family="Courier New" font-size="14">réf message</text>
	<line x1="593" y1="56" x2="687" y2="56" stroke="#000000" stroke-width="1"/>
	<text x="593" y="71.6" fill="#000000" font-family="Courier New" font-size="14">rang</text>
	<text x="593" y="89.6" fill="#000000" font-family="Courier New" font-size="14">auteur</text>
	<text x="593" y="107.6" fill="#000000" font-family="Courier New" font-size="14">date</text>
</g>

<!-- Entity PASSAGE -->
<g>
	<g>
		<rect x="178" y="139" width="138" height="26" fill="#FFFFFF" stroke="none" stroke-width="0" opacity="1"/>
		<rect x="178" y="165" width="138" height="44" fill="#FFFFFF" stroke="none" stroke-width="0" opacity="1"/>
		<rect x="178" y="139" width="138" height="70" fill="none" stroke="#000000" stroke-width="1.5" opacity="1"/>
		<line x1="178" y1="165" x2="316" y2="165" stroke="#000000" stroke-width="1"/>
	</g>
	<text x="217" y="157.6" fill="#000000" font-family="Courier New" font-size="14">Passage</text>
	<text x="183" y="183.6" fill="#000000" font-family="Courier New" font-size="14">réf passage</text>
	<line x1="183" y1="186" x2="277" y2="186" stroke="#000000" stroke-width="1"/>
	<text x="183" y="201.6" fill="#000000" font-family="Courier New" font-size="14">statut workflow</text>
</g>

<!-- Entity ANCRAGE_PLATEFORME -->
<g>
	<g>
		<rect x="9" y="233" width="172" height="26" fill="#FFFFFF" stroke="none" stroke-width="0" opacity="1"/>
		<rect x="9" y="259" width="172" height="80" fill="#FFFFFF" stroke="none" stroke-width="0" opacity="1"/>
		<rect x="9" y="233" width="172" height="106" fill="none" stroke="#000000" stroke-width="1.5" opacity="1"/>
		<line x1="9" y1="259" x2="181" y2="259" stroke="#000000" stroke-width="1"/>
	</g>
	<text x="19" y="251.6" fill="#000000" font-family="Courier New" font-size="14">Ancrage plateforme</text>
	<text x="14" y="277.6" fill="#000000" font-family="Courier New" font-size="14">entité</text>
	<line x1="14" y1="280" x2="66" y2="280" stroke="#000000" stroke-width="1"/>
	<text x="14" y="295.6" fill="#000000" font-family="Courier New" font-size="14">référence locale</text>
	<text x="14" y="313.6" fill="#000000" font-family="Courier New" font-size="14">objectid VigieChiro</text>
	<text x="14" y="331.6" fill="#000000" font-family="Courier New" font-size="14">verrouillé</text>
</g>

<!-- Entity UNITE_DE_DEPOT -->
<g>
	<g>
		<rect x="371" y="233" width="130" height="26" fill="#FFFFFF" stroke="none" stroke-width="0" opacity="1"/>
		<rect x="371" y="259" width="130" height="80" fill="#FFFFFF" stroke="none" stroke-width="0" opacity="1"/>
		<rect x="371" y="233" width="130" height="106" fill="none" stroke="#000000" stroke-width="1.5" opacity="1"/>
		<line x1="371" y1="259" x2="501" y2="259" stroke="#000000" stroke-width="1"/>
	</g>
	<text x="377" y="251.6" fill="#000000" font-family="Courier New" font-size="14">Unité de dépôt</text>
	<text x="376" y="277.6" fill="#000000" font-family="Courier New" font-size="14">réf unité</text>
	<line x1="376" y1="280" x2="453" y2="280" stroke="#000000" stroke-width="1"/>
	<text x="376" y="295.6" fill="#000000" font-family="Courier New" font-size="14">identifiant</text>
	<text x="376" y="313.6" fill="#000000" font-family="Courier New" font-size="14">type</text>
	<text x="376" y="331.6" fill="#000000" font-family="Courier New" font-size="14">statut</text>
</g>

<!-- Entity OBSERVATION -->
<g>
	<g>
		<rect x="588" y="233" width="188" height="26" fill="#FFFFFF" stroke="none" stroke-width="0" opacity="1"/>
		<rect x="588" y="259" width="188" height="80" fill="#FFFFFF" stroke="none" stroke-width="0" opacity="1"/>
		<rect x="588" y="233" width="188" height="106" fill="none" stroke="#000000" stroke-width="1.5" opacity="1"/>
		<line x1="588" y1="259" x2="776" y2="259" stroke="#000000" stroke-width="1"/>
	</g>
	<text x="635" y="251.6" fill="#000000" font-family="Courier New" font-size="14">Observation</text>
	<text x="593" y="277.6" fill="#000000" font-family="Courier New" font-size="14">réf observation</text>
	<line x1="593" y1="280" x2="720" y2="280" stroke="#000000" stroke-width="1"/>
	<text x="593" y="295.6" fill="#000000" font-family="Courier New" font-size="14">taxon observateur</text>
	<text x="593" y="313.6" fill="#000000" font-family="Courier New" font-size="14">certitude observateur</text>
	<text x="593" y="331.6" fill="#000000" font-family="Courier New" font-size="14">taxon validateur</text>
</g>
</svg>